<?xml version="1.0" encoding="utf-8"?>
<!-- Generator: Adobe Illustrator 15.0.0, SVG Export Plug-In . SVG Version: 6.00 Build 0)  -->
<!DOCTYPE svg PUBLIC "-//W3C//DTD SVG 1.1//EN" "http://www.w3.org/Graphics/SVG/1.1/DTD/svg11.dtd">
<svg version="1.1" id="Capa_1" xmlns="http://www.w3.org/2000/svg" xmlns:xlink="http://www.w3.org/1999/xlink" x="0px" y="0px"
	 width="595.279px" height="592.801px" viewBox="0 0 595.279 592.801" enable-background="new 0 0 595.279 592.801"
	 xml:space="preserve">
<g>
	<path fill="#FFFFFF" d="M297.642,0C133.261,0-0.001,133.262-0.001,297.643c0,147.432,107.307,269.529,248.001,293.172V359.739
		h-71.8v-83.155H248V215.27c0-71.143,43.452-109.912,106.926-109.912c30.398,0,56.525,2.266,64.109,3.263v74.363l-44.023,0.021
		c-34.512,0-41.166,16.396-41.166,40.467v53.07h82.35l-10.74,83.155h-71.607v233.105C481.11,574.879,595.28,449.672,595.28,297.557
		C595.28,133.262,462.02,0,297.642,0z"/>
</g>
</svg>
