<?xml version="1.0" encoding="utf-8"?>
<!-- Generator: Adobe Illustrator 15.0.0, SVG Export Plug-In . SVG Version: 6.00 Build 0)  -->
<!DOCTYPE svg PUBLIC "-//W3C//DTD SVG 1.1//EN" "http://www.w3.org/Graphics/SVG/1.1/DTD/svg11.dtd">
<svg version="1.1" id="Capa_1" xmlns="http://www.w3.org/2000/svg" xmlns:xlink="http://www.w3.org/1999/xlink" x="0px" y="0px"
	 width="595.279px" height="595.28px" viewBox="0 123.305 595.279 595.28" enable-background="new 0 123.305 595.279 595.28"
	 xml:space="preserve">
<g>
	<g>
		<path fill="#FFFFFF" d="M221.347,388.292c23.3-23.33,63.89-23.33,87.156,0l21.79,21.758c12.051,12.082,31.528,12.082,43.579,0
			c12.051-12.02,12.051-31.528,0-43.579l-21.758-21.758c-23.301-23.33-54.274-36.151-87.188-36.151
			c-32.915,0-63.89,12.821-87.157,36.09L36.09,486.36c-48.078,48.047-48.078,126.269,0,174.315l21.79,21.759
			c23.3,23.33,54.242,36.15,87.188,36.15c32.916,0,63.858-12.883,87.128-36.121l66.972-66.94c12.051-12.051,12.051-31.528,0-43.548
			c-12.051-12.082-31.528-12.082-43.579,0l-66.972,66.909c-23.27,23.3-63.827,23.3-87.157,0l-21.79-21.79
			c-24.008-24.039-24.008-63.148,0-87.157C79.668,529.938,221.347,388.292,221.347,388.292z M417.482,497.238L559.127,355.53
			c23.301-23.269,36.122-54.212,36.122-87.127c0-32.946-12.821-63.89-36.122-87.127l-21.789-21.851
			c-23.299-23.299-54.241-36.12-87.157-36.12s-63.89,12.821-87.157,36.122l-61.177,61.177c-12.051,12.082-12.051,31.56-0.031,43.548
			c12.051,12.111,31.56,12.111,43.609,0.031l61.177-61.177c11.65-11.65,27.121-18.061,43.579-18.061s31.929,6.411,43.579,18.061
			l21.79,21.821c11.649,11.619,18.061,27.09,18.061,43.579c0,16.458-6.411,31.93-18.061,43.548L373.872,453.599
			c-23.269,23.33-63.858,23.33-87.127,0.031c-12.051-12.051-31.528-12.051-43.579-0.031c-12.051,12.082-12.051,31.528-0.031,43.579
			c23.3,23.3,54.242,36.151,87.157,36.151C363.239,533.329,394.181,520.477,417.482,497.238z"/>
	</g>
</g>
</svg>
