<?xml version="1.0" encoding="utf-8"?>
<!-- Generator: Adobe Illustrator 15.0.0, SVG Export Plug-In . SVG Version: 6.00 Build 0)  -->
<!DOCTYPE svg PUBLIC "-//W3C//DTD SVG 1.1//EN" "http://www.w3.org/Graphics/SVG/1.1/DTD/svg11.dtd">
<svg version="1.1" id="Capa_1" xmlns="http://www.w3.org/2000/svg" xmlns:xlink="http://www.w3.org/1999/xlink" x="0px" y="0px"
	 width="595.279px" height="595.281px" viewBox="0 0 595.279 595.281" enable-background="new 0 0 595.279 595.281"
	 xml:space="preserve">
<g>
	<g>
		<path fill="#FFFFFF" d="M297.64,0C133.269,0-0.001,133.268-0.001,297.64c0,164.371,133.27,297.641,297.641,297.641
			c164.373,0,297.64-133.27,297.64-297.641C595.28,133.232,462.012,0,297.64,0z M445.716,230.82l0.223,9.487
			c0,96.882-73.703,208.497-208.497,208.497c-41.372,0-79.88-12.127-112.322-32.928c5.73,0.67,11.571,1.043,17.487,1.043
			c34.341,0,65.927-11.721,91.003-31.363c-32.07-0.596-59.119-21.803-68.457-50.896c4.501,0.855,9.041,1.264,13.803,1.264
			c6.697,0,13.17-0.854,19.31-2.527c-33.521-6.771-58.783-36.35-58.783-71.843v-0.93c9.896,5.506,21.169,8.78,33.187,9.19
			c-19.645-13.134-32.592-35.568-32.592-60.979c0-13.431,3.609-26.007,9.896-36.833c36.126,44.348,90.146,73.518,151.051,76.568
			c-1.266-5.358-1.896-10.977-1.896-16.705c0-40.441,32.814-73.258,73.295-73.258c21.059,0,40.107,8.892,53.5,23.141
			c16.668-3.311,32.369-9.412,46.545-17.783c-5.471,17.113-17.078,31.475-32.221,40.553c14.771-1.748,28.945-5.73,42.078-11.533
			C472.503,207.64,460.038,220.551,445.716,230.82z"/>
	</g>
</g>
</svg>
